<?xml version="1.0" encoding="iso-8859-1"?>
<!-- Generator: Adobe Illustrator 19.0.0, SVG Export Plug-In . SVG Version: 6.00 Build 0)  -->
<svg version="1.1" id="Capa_1" xmlns="http://www.w3.org/2000/svg" xmlns:xlink="http://www.w3.org/1999/xlink" x="0px" y="0px"  viewBox="0 0 512 512" style="enable-background:new 0 0 512 512;" xml:space="preserve">
	<g>
		<g>
			<path d="M455.5,153V0h-47v296.717l23.5,70.5l23.5-70.5V168h33v297h-200c-9.25,0-18,3.205-25,8.551V448h-15v25.551
				c-6-5.346-14.75-8.551-24-8.551h-201V168h145v42.106l23.5-23.5l23.5,23.5V168h9c13.51,0,24,10.491,24,24v224h15V192
				c0-13.509,11.49-24,25-24h96v-15h-96c-13.153,0-24.817,6.468-32,16.384c-7.183-9.916-18.847-16.384-32-16.384h-9v-16h-47v16H8.5
				v359h495V153H455.5z M432.5,319.783L426.906,303h11.188L432.5,319.783z M440.5,288h-17V15h17V288z M183.5,152h17v21.894l-8.5-8.5
				l-8.5,8.5V152z M23.5,497v-17h201c10.895,0,20.151,7.147,23.326,17H23.5z M488.5,497H265.174c3.175-9.853,12.432-17,23.326-17h200
				V497z"/>
		</g>
	</g>
	<g>
		<g>
			<path d="M184.5,264.562c-2.571,0-5.044,0.39-7.362,1.156l-21.282-28.398c2.611-3.786,4.144-8.377,4.144-13.314
				c0-12.958-10.542-23.504-23.5-23.504c-12.958,0-23.5,10.54-23.5,23.498c0,4.937,1.533,9.519,4.144,13.305l-21.282,28.381
				c-2.318-0.765-4.791-1.186-7.362-1.186C75.542,264.5,65,275.042,65,288s10.542,23.5,23.5,23.5S112,300.958,112,288
				c0-4.936-1.533-9.52-4.144-13.306l21.282-28.382c2.317,0.767,4.791,1.188,7.362,1.188s5.044-0.421,7.362-1.188l21.282,28.632
				c-1.224,1.775-2.207,3.056-2.91,6.056H120.5v15h41.734c3.138,9,11.93,15.75,22.266,15.75c12.958,0,23.5-10.667,23.5-23.625
				S197.458,264.562,184.5,264.562z M88.5,296.5c-4.687,0-8.5-3.813-8.5-8.5s3.813-8.5,8.5-8.5s8.5,3.813,8.5,8.5
				S93.187,296.5,88.5,296.5z M136.5,232.5c-4.686,0-8.5-3.813-8.5-8.5s3.814-8.5,8.5-8.5c4.686,0,8.5,3.813,8.5,8.5
				S141.186,232.5,136.5,232.5z M184.5,296.5c-4.686,0-8.5-3.813-8.5-8.5s3.814-8.5,8.5-8.5c4.686,0,8.5,3.813,8.5,8.5
				S189.186,296.5,184.5,296.5z"/>
		</g>
	</g>
	<g>
		<g>
			<rect x="64.5" y="329" width="144" height="15"/>
		</g>
	</g>
	<g>
		<g>
			<rect x="64.5" y="361" width="144" height="15"/>
		</g>
	</g>
	<g>
		<g>
			<rect x="64.5" y="393" width="144" height="15"/>
		</g>
	</g>
	<g>
		<g>
			<rect x="64.5" y="425" width="144" height="15"/>
		</g>
	</g>
	<g>
		<g>
			<rect x="304.5" y="329" width="96" height="15"/>
		</g>
	</g>
	<g>
		<g>
			<rect x="304.5" y="361" width="112" height="15"/>
		</g>
	</g>
	<g>
		<g>
			<rect x="304.5" y="393" width="144" height="15"/>
		</g>
	</g>
	<g>
		<g>
			<rect x="304.5" y="425" width="144" height="15"/>
		</g>
	</g>
	<g>
		<g>
			<rect x="336.5" y="265" width="64" height="15"/>
		</g>
	</g>
	<g>
		<g>
			<rect x="304.5" y="297" width="96" height="15"/>
		</g>
	</g>
	<g>
		<g>
			<rect x="304.5" y="217" width="16" height="15"/>
		</g>
	</g>
	<g>
		<g>
			<rect x="352.5" y="217" width="16" height="15"/>
		</g>
	</g>
</svg>
