<?xml version="1.0" encoding="iso-8859-1"?>
<!-- Generator: Adobe Illustrator 19.0.0, SVG Export Plug-In . SVG Version: 6.00 Build 0)  -->
<svg version="1.1" id="Capa_1" xmlns="http://www.w3.org/2000/svg" xmlns:xlink="http://www.w3.org/1999/xlink" x="0px" y="0px" viewBox="0 0 511.903 511.903" style="enable-background:new 0 0 511.903 511.903;" xml:space="preserve">
	<g>
		<g>
			<path d="M175.926,94.886c-5.171-5.187-12.06-8.042-19.387-8.042c-6.061,0-11.826,1.953-16.567,5.565
				c-4.741-3.612-10.506-5.565-16.567-5.565c-7.327,0-14.216,2.855-19.395,8.038c-10.685,10.686-10.685,28.085,0,38.782
				l33.134,33.134c0.75,0.749,1.766,1.171,2.828,1.171s2.078-0.422,2.828-1.172l33.126-33.13c5.186-5.182,8.045-12.072,8.045-19.402
				C183.972,106.938,181.113,100.053,175.926,94.886z M170.271,128.007l-30.299,30.307l-30.307-30.307
				c-7.569-7.576-7.569-19.902,0-27.471c3.672-3.671,8.553-5.694,13.74-5.694c5.187,0,10.068,2.023,13.74,5.694
				c1.5,1.5,4.155,1.5,5.655,0c7.342-7.342,20.144-7.346,27.471,0.004c3.68,3.663,5.702,8.537,5.702,13.724
				C175.973,119.454,173.951,124.336,170.271,128.007z"/>
		</g>
	</g>
	<g>
		<g>
			<path d="M123.405,102.832c-1.766,0-5.156,0.434-8.062,3.343c-2.928,2.918-3.366,6.323-3.366,8.093c0,1.765,0.438,5.163,3.335,8.08
				c0.781,0.785,1.813,1.176,2.836,1.176s2.038-0.386,2.819-1.164c1.571-1.562,1.571-4.093,0.016-5.659
				c-0.836-0.832-1.007-1.784-1.007-2.433s0.171-1.594,1.015-2.43c0.875-0.874,1.891-1.007,2.414-1.007c2.21,0,3.999-1.789,3.999-4
				C127.404,104.621,125.615,102.832,123.405,102.832z"/>
		</g>
	</g>
	<g>
		<g>
			<path d="M347.932,415.921H235.954c-2.211,0-4,1.789-4,4c0,2.21,1.79,3.999,4,3.999h111.979c2.21,0,3.999-1.789,3.999-3.999
				C351.931,417.71,350.142,415.921,347.932,415.921z"/>
		</g>
	</g>
	<g>
		<g>
			<path d="M331.934,399.925h-15.997c-1.336,0-2.586,0.672-3.328,1.78l-8.67,13.006v-10.787c0-1.68-1.07-3.148-2.647-3.726
				c-1.57-0.586-3.366-0.086-4.444,1.194c-2.914,3.437-16.13,15.779-23.504,14.435c-0.633-0.11-2.327-0.422-3.835-3.265
				c7.022-9.561,12.7-19.2,11.521-24.144c-0.469-1.961-1.734-3.445-3.577-4.194c-4.094-1.656-8.46-0.703-11.959,2.632
				c-4.624,4.413-7.976,13.74-5.038,24.301c-3.593,4.717-7.6,9.623-11.521,14.137c-1.453,1.664-1.273,4.188,0.391,5.641
				c1.664,1.452,4.195,1.28,5.64-0.391c2.82-3.235,6.132-7.148,9.428-11.303c2.461,2.952,5.358,4.1,7.701,4.491
				c8.163,1.391,17.544-5.03,23.848-10.42v14.607c0,1.765,1.156,3.312,2.843,3.827c0.383,0.117,0.773,0.172,1.156,0.172
				c1.313,0,2.57-0.648,3.325-1.78l14.811-22.215h13.856c2.21,0,3.999-1.789,3.999-3.999
				C335.933,401.713,334.144,399.925,331.934,399.925z M271.018,392.644c0.772-0.734,1.444-1.055,1.991-1.164
				c-0.657,2.157-2.695,5.718-5.56,9.99C267.776,397.596,269.19,394.394,271.018,392.644z"/>
		</g>
	</g>
	<g>
		<g>
			<path d="M471.237,457.695l-14.911-22.37l7.382-22.137c0.133-0.407,0.203-0.836,0.203-1.266v-7.998
				c0-2.211-1.789-3.999-3.999-3.999c-2.211,0-4,1.788-4,3.999v7.35l-7.795,23.379c-0.39,1.171-0.219,2.452,0.469,3.483
				l15.996,23.995c0.773,1.156,2.039,1.781,3.328,1.781c0.766,0,1.539-0.219,2.219-0.671
				C471.964,462.015,472.464,459.539,471.237,457.695z"/>
		</g>
	</g>
	<g>
		<g>
			<path d="M487.703,434.652l-7.795-23.379v-7.35c0-2.211-1.789-3.999-4-3.999c-2.21,0-3.999,1.788-3.999,3.999v7.998
				c0,0.43,0.07,0.86,0.203,1.266l7.382,22.137l-14.912,22.37c-1.226,1.844-0.726,4.32,1.109,5.546
				c0.68,0.453,1.453,0.672,2.219,0.672c1.289,0,2.555-0.625,3.327-1.782l15.997-23.995
				C487.922,437.104,488.094,435.823,487.703,434.652z"/>
		</g>
	</g>
	<g>
		<g>
			<path d="M483.906,335.936h-31.994c-2.21,0-3.999,1.789-3.999,4c0,2.21,1.789,3.998,3.999,3.998h31.994
				c2.21,0,3.999-1.788,3.999-3.998C487.905,337.725,486.116,335.936,483.906,335.936z"/>
		</g>
	</g>
	<g>
		<g>
			<path d="M447.914,139.813c-0.086-2.207-1.836-4.026-4.155-3.835c-2.211,0.086-3.929,1.949-3.843,4.156l7.998,199.957
				c0.086,2.156,1.859,3.843,3.999,3.843c0.055,0,0.101,0,0.156-0.001c2.211-0.093,3.929-1.952,3.843-4.154L447.914,139.813z"/>
		</g>
	</g>
	<g>
		<g>
			<path d="M492.06,135.979c-2.069-0.172-4.061,1.628-4.155,3.835l-7.998,199.966c-0.086,2.202,1.632,4.06,3.843,4.154
				c0.054,0,0.101,0,0.156,0c2.14,0,3.913-1.686,3.999-3.842l7.998-199.957C495.989,137.928,494.271,136.065,492.06,135.979z"/>
		</g>
	</g>
	<g>
		<g>
			<path d="M467.909,103.981c-17.793,0-27.994,13.118-27.994,35.993c0,2.21,1.788,3.999,3.999,3.999c2.21,0,3.999-1.789,3.999-3.999
				c0-18.575,6.725-27.995,19.996-27.995c13.27,0,19.996,9.42,19.996,27.995c0,2.21,1.789,3.999,3.999,3.999
				c2.211,0,3.999-1.789,3.999-3.999C495.904,117.099,485.703,103.981,467.909,103.981z"/>
		</g>
	</g>
	<g>
		<g>
			<path d="M475.907,103.981h-15.996c-2.211,0-4,1.789-4,3.999c0,2.21,1.789,3.999,4,3.999h15.996c2.211,0,4-1.789,4-3.999
				C479.907,105.77,478.118,103.981,475.907,103.981z"/>
		</g>
	</g>
	<g>
		<g>
			<path d="M467.909,119.978c-2.211,0-3.999,1.788-3.999,3.999v119.976c0,2.211,1.788,4,3.999,4s3.999-1.788,3.999-3.999V123.977
				C471.909,121.766,470.12,119.978,467.909,119.978z"/>
		</g>
	</g>
	<g>
		<g>
			<path d="M483.906,351.933h-31.994c-2.21,0-3.999,1.789-3.999,3.999c0,2.211,1.789,4,3.999,4h31.994c2.21,0,3.999-1.789,3.999-4
				C487.905,353.722,486.116,351.933,483.906,351.933z"/>
		</g>
	</g>
	<g>
		<g>
			<path d="M483.906,335.936c-2.211,0-3.999,1.789-3.999,4v15.996c0,2.211,1.788,4,3.999,4c2.21,0,3.999-1.789,3.999-4v-15.996
				C487.905,337.725,486.116,335.936,483.906,335.936z"/>
		</g>
	</g>
	<g>
		<g>
			<path d="M451.912,335.936c-2.21,0-3.999,1.789-3.999,4v15.996c0,2.211,1.789,4,3.999,4c2.211,0,3.999-1.789,3.999-4v-15.996
				C455.911,337.725,454.123,335.936,451.912,335.936z"/>
		</g>
	</g>
	<g>
		<g>
			<path d="M483.906,399.925h-31.994c-2.21,0-3.999,1.788-3.999,3.999c0,2.21,1.789,3.999,3.999,3.999h31.994
				c2.21,0,3.999-1.789,3.999-3.999C487.905,401.713,486.116,399.925,483.906,399.925z"/>
		</g>
	</g>
	<g>
		<g>
			<path d="M483.906,351.933c-2.211,0-3.999,1.789-3.999,3.999v47.992c0,2.21,1.788,3.999,3.999,3.999c2.21,0,3.999-1.789,3.999-4
				v-47.991C487.905,353.722,486.116,351.933,483.906,351.933z"/>
		</g>
	</g>
	<g>
		<g>
			<path d="M451.912,351.933c-2.21,0-3.999,1.789-3.999,3.999v47.992c0,2.21,1.789,3.999,3.999,3.999c2.211,0,3.999-1.789,3.999-4
				v-47.991C455.911,353.722,454.123,351.933,451.912,351.933z"/>
		</g>
	</g>
	<g>
		<g>
			<path d="M395.923,47.992c-2.211,0-3.999,1.789-3.999,3.999V475.91c0,2.21,1.788,3.999,3.999,3.999
				c2.211,0,3.999-1.789,3.999-3.999V51.991C399.922,49.781,398.134,47.992,395.923,47.992z"/>
		</g>
	</g>
	<g>
		<g>
			<path d="M395.923,471.911H51.99c-2.211,0-4,1.788-4,3.999c0,2.21,1.789,3.999,4,3.999h343.934c2.211,0,3.999-1.789,3.999-3.999
				C399.922,473.699,398.134,471.911,395.923,471.911z"/>
		</g>
	</g>
	<g>
		<g>
			<path d="M51.99,0c-2.211,0-4,1.79-4,4v471.91c0,2.21,1.789,3.999,4,3.999c2.21,0,3.999-1.789,3.999-3.999V4
				C55.988,1.789,54.199,0,51.99,0z"/>
		</g>
	</g>
	<g>
		<g>
			<path d="M347.932,0H51.99c-2.211,0-4,1.789-4,4s1.789,4,4,4h295.943c2.21,0,3.999-1.789,3.999-4S350.142,0,347.932,0z"/>
		</g>
	</g>
	<g>
		<g>
			<path d="M398.751,49.163L350.76,1.173c-1.562-1.562-4.093-1.562-5.655,0s-1.562,4.093,0,5.655l47.992,47.991
				c0.78,0.78,1.804,1.171,2.827,1.171s2.047-0.391,2.828-1.172C400.313,53.256,400.313,50.725,398.751,49.163z"/>
		</g>
	</g>
	<g>
		<g>
			<path d="M339.933,15.998c-2.21,0-3.999,1.789-3.999,3.999v39.992c0,2.211,1.789,4,3.999,4c2.211,0,3.999-1.789,3.999-3.999V19.997
				C343.932,17.787,342.144,15.998,339.933,15.998z"/>
		</g>
	</g>
	<g>
		<g>
			<path d="M379.927,55.989h-39.992c-2.21,0-3.999,1.789-3.999,4s1.789,4,3.999,4h39.992c2.211,0,3.999-1.789,3.999-4
				S382.138,55.989,379.927,55.989z"/>
		</g>
	</g>
	<g>
		<g>
			<path d="M347.932,207.96H99.979c-2.21,0-3.999,1.789-3.999,4s1.789,4,3.999,4h247.953c2.21,0,3.999-1.789,3.999-4
				S350.143,207.96,347.932,207.96z"/>
		</g>
	</g>
	<g>
		<g>
			<path d="M347.932,239.954H99.979c-2.21,0-3.999,1.789-3.999,3.999c0,2.211,1.789,4,3.999,4h247.953c2.21,0,3.999-1.788,3.999-4
				C351.932,241.743,350.143,239.954,347.932,239.954z"/>
		</g>
	</g>
	<g>
		<g>
			<path d="M347.932,271.949H99.979c-2.21,0-3.999,1.788-3.999,3.999s1.789,3.999,3.999,3.999h247.953
				c2.21,0,3.999-1.788,3.999-3.999S350.143,271.949,347.932,271.949z"/>
		</g>
	</g>
	<g>
		<g>
			<path d="M347.932,303.942H99.979c-2.21,0-3.999,1.789-3.999,4c0,2.21,1.789,3.999,3.999,3.999h247.953
				c2.21,0,3.999-1.789,3.999-3.999C351.932,305.731,350.143,303.942,347.932,303.942z"/>
		</g>
	</g>
	<g>
		<g>
			<path d="M227.956,335.936H99.979c-2.21,0-3.999,1.789-3.999,4c0,2.21,1.789,3.998,3.999,3.998h127.976
				c2.211,0,3.999-1.788,3.999-3.998C231.954,337.725,230.167,335.936,227.956,335.936z"/>
		</g>
	</g>
	<g>
		<g>
			<path d="M35.993,15.998c-2.211,0-3.999,1.789-3.999,3.999v471.91c0,2.21,1.788,3.999,3.999,3.999c2.21,0,3.999-1.789,3.999-3.999
				V19.997C39.991,17.787,38.202,15.998,35.993,15.998z"/>
		</g>
	</g>
	<g>
		<g>
			<path d="M379.926,487.907H35.993c-2.211,0-3.999,1.789-3.999,4c0,2.21,1.788,3.999,3.999,3.999h343.934
				c2.211,0,3.999-1.789,3.999-3.999C383.925,489.696,382.137,487.907,379.926,487.907z"/>
		</g>
	</g>
	<g>
		<g>
			<path d="M363.93,503.904H19.995c-2.21,0-3.999,1.789-3.999,3.999c0,2.211,1.789,4,3.999,4H363.93c2.21,0,4-1.789,4-4
				C367.93,505.693,366.141,503.904,363.93,503.904z"/>
		</g>
	</g>
	<g>
		<g>
			<path d="M19.995,31.995c-2.21,0-3.999,1.789-3.999,3.999v471.909c0,2.211,1.789,4,3.999,4s3.999-1.789,3.999-4V35.994
				C23.995,33.784,22.206,31.995,19.995,31.995z"/>
		</g>
	</g>
</svg>
