<?xml version="1.0" encoding="iso-8859-1"?>
<!-- Generator: Adobe Illustrator 19.0.0, SVG Export Plug-In . SVG Version: 6.00 Build 0)  -->
<svg version="1.1" id="Layer_1" xmlns="http://www.w3.org/2000/svg" xmlns:xlink="http://www.w3.org/1999/xlink" x="0px" y="0px" viewBox="0 0 496 496" style="enable-background:new 0 0 496 496;" xml:space="preserve">
	<g>
		<g>
			<g>
				<path d="M0,40v416c0,22.056,17.944,40,40,40h344v-16H40c-13.232,0-24-10.768-24-24s10.768-24,24-24h344V0H40
					C17.944,0,0,17.944,0,40z M368,416H40c-9,0-17.312,2.992-24,8.016V40c0-13.232,10.768-24,24-24h328V416z"/>
				<rect x="368" y="448" width="16" height="16"/>
				<rect x="48" y="448" width="304" height="16"/>
				<path d="M336,48H48v160h288V48z M320,192H64V64h256V192z"/>
				<rect x="224" y="224" width="112" height="16"/>
				<rect x="320" y="256" width="16" height="16"/>
				<rect x="272" y="256" width="32" height="16"/>
				<path d="M448,2.232l-48,67.2V448c0,26.472,21.528,48,48,48s48-21.528,48-48V69.44L448,2.232z M448,29.768L472.456,64h-48.912
					L448,29.768z M480,448c0,17.648-14.352,32-32,32s-32-14.352-32-32v-16h64V448z M480,416h-64v-16h64V416z M480,384h-24v-16h-16v16
					h-24V80h24v272h16V80h24V384z"/>
			</g>
		</g>
	</g>

</svg>
