<?xml version="1.0" encoding="iso-8859-1"?>
<!-- Generator: Adobe Illustrator 19.0.0, SVG Export Plug-In . SVG Version: 6.00 Build 0)  -->
<svg version="1.1" id="Capa_1" xmlns="http://www.w3.org/2000/svg" xmlns:xlink="http://www.w3.org/1999/xlink" x="0px" y="0px" width="26" height="26"	viewBox="0 0 512 512" style="enable-background:new 0 0 512 512;" xml:space="preserve">
	<g>
		<g>
			<path d="M308.833,0c-5.523,0-10,4.477-10,10v43.921c0,5.523,4.478,10,10,10c5.523,0,10-4.477,10-10V10
				C318.833,4.477,314.356,0,308.833,0z"/>
		</g>
	</g>
	<g>
		<g>
			<path d="M372.554,23.577c-4.792-2.745-10.902-1.086-13.648,3.706l-18,31.417c-2.745,4.791-1.086,10.902,3.706,13.647
				c1.568,0.898,3.276,1.325,4.962,1.325c3.467,0,6.839-1.806,8.686-5.03l18-31.417C379.006,32.433,377.346,26.323,372.554,23.577z"
				/>
		</g>
	</g>
	<g>
		<g>
			<path d="M277.094,58.699l-18-31.417c-2.746-4.792-8.857-6.452-13.648-3.706c-4.792,2.746-6.451,8.856-3.706,13.648l18,31.418
				c1.848,3.225,5.218,5.03,8.686,5.03c1.686,0,3.395-0.427,4.962-1.325C278.18,69.601,279.839,63.491,277.094,58.699z"/>
		</g>
	</g>
	<g>
		<g>
			<path d="M184.109,192.914c-3.905-3.905-10.237-3.905-14.143,0l-0.076,0.076c-3.905,3.905-3.905,10.237,0,14.143
				c1.953,1.953,4.513,2.929,7.072,2.929c2.559,0,5.119-0.976,7.071-2.929l0.076-0.076
				C188.014,203.152,188.014,196.82,184.109,192.914z"/>
		</g>
	</g>
	<g>
		<g>
			<path d="M472,150h-42.757l-25.735-48.528c-1.734-3.27-5.133-5.315-8.834-5.315H223.326c-3.702,0-7.101,2.045-8.834,5.315
				L188.757,150H126v-6.917C126,129.252,114.748,118,100.917,118H79.083C65.252,118,54,129.252,54,143.083V150H40
				c-22.056,0-40,17.944-40,40v282c0,22.056,17.944,40,40,40h432c22.056,0,40-17.944,40-40V190C512,167.944,494.056,150,472,150z
				 M74,143.083c0-2.803,2.28-5.083,5.083-5.083h21.833c2.803,0,5.083,2.28,5.083,5.083V150H74V143.083z M106,492H40
				c-11.028,0-20-8.972-20-20V190c0-11.028,8.972-20,20-20h24h42V492z M492,472c0,11.028-8.972,20-20,20H126V170h68.773
				c3.702,0,7.101-2.045,8.834-5.315l25.735-48.528h159.315L406.605,150H249.716c-5.523,0-10,4.477-10,10s4.477,10,10,10H472
				c11.028,0,20,8.972,20,20V472z"/>
		</g>
	</g>
	<g>
		<g>
			<path d="M309,189c-78.299,0-142,63.701-142,142c0,30.606,9.586,59.759,27.723,84.306c17.772,24.053,42.132,41.618,70.446,50.798
				c1.025,0.332,2.064,0.49,3.086,0.49c4.218,0,8.14-2.69,9.511-6.919c1.703-5.254-1.175-10.894-6.429-12.597
				C220.893,430.725,187,384.076,187,331c0-67.271,54.729-122,122-122s122,54.729,122,122c0,52.56-33.464,99.067-83.272,115.728
				c-5.237,1.752-8.063,7.418-6.311,12.655c1.751,5.238,7.418,8.061,12.656,6.312C412.048,446.303,451,392.173,451,331
				C451,252.701,387.299,189,309,189z"/>
		</g>
	</g>
	<g>
		<g>
			<path d="M309.082,453H309c-5.523,0-9.959,4.478-9.959,10c0,5.522,4.518,10,10.041,10s10-4.478,10-10
				C319.082,457.478,314.604,453,309.082,453z"/>
		</g>
	</g>
	<g>
		<g>
			<path d="M351.767,236.174c-5.033-2.271-10.957-0.036-13.23,4.998c-2.273,5.033-0.036,10.957,4.998,13.23
				C373.583,267.974,393,298.04,393,331c0,46.317-37.682,84-84,84s-84-37.683-84-84c0-33.781,20.093-64.145,51.188-77.353
				c5.083-2.159,7.454-8.031,5.294-13.114c-2.159-5.084-8.031-7.453-13.113-5.294C229.874,251.591,205,289.18,205,331
				c0,57.346,46.654,104,104,104s104-46.654,104-104C413,290.196,388.964,252.975,351.767,236.174z"/>
		</g>
	</g>
	<g>
		<g>
			<path d="M309.809,227.003L309,227c-5.523,0-10,4.477-10,10s4.477,10,10,10l0.648,0.002c0.028,0,0.055,0,0.082,0
				c5.485,0,9.954-4.424,9.998-9.919C319.772,231.56,315.332,227.047,309.809,227.003z"/>
		</g>
	</g>
	<g>
		<g>
			<path d="M334.962,278.016c-9.043,0-17.862,2.861-25.246,8.044c-7.385-5.183-16.204-8.044-25.247-8.044
				c-24.677,0-44.753,20.672-44.753,46.081c0,38.415,58.533,71.49,65.207,75.135c1.494,0.815,3.143,1.224,4.793,1.224
				c1.65,0,3.299-0.408,4.793-1.224c6.674-3.645,65.207-36.72,65.207-75.135C379.716,298.688,359.639,278.016,334.962,278.016z
				 M309.712,378.905c-16.879-10.21-49.995-34.412-49.995-54.808c0-14.381,11.104-26.081,24.753-26.081
				c6.798,0,13.14,2.849,17.856,8.023c1.895,2.079,4.578,3.264,7.391,3.264s5.496-1.185,7.391-3.264
				c4.715-5.174,11.056-8.023,17.855-8.023c13.649,0,24.754,11.7,24.754,26.081C359.717,344.436,326.585,368.677,309.712,378.905z"/>
		</g>
	</g>
	<g>
		<g>
			<path d="M463.5,54H458v-5.5c0-5.523-4.477-10-10-10s-10,4.477-10,10V54h-5.5c-5.523,0-10,4.477-10,10s4.477,10,10,10h5.5v5.5
				c0,5.523,4.477,10,10,10s10-4.477,10-10V74h5.5c5.523,0,10-4.477,10-10S469.023,54,463.5,54z"/>
		</g>
	</g>
	<g>
		<g>
			<path d="M131.5,69.5H126V64c0-5.523-4.477-10-10-10s-10,4.477-10,10v5.5h-5.5c-5.523,0-10,4.477-10,10s4.477,10,10,10h5.5V95
				c0,5.523,4.477,10,10,10s10-4.477,10-10v-5.5h5.5c5.523,0,10-4.477,10-10S137.023,69.5,131.5,69.5z"/>
		</g>
	</g>

</svg>
