<?xml version="1.0" encoding="iso-8859-1"?>
<!-- Generator: Adobe Illustrator 19.0.0, SVG Export Plug-In . SVG Version: 6.00 Build 0)  -->
<svg version="1.1" id="Capa_1" xmlns="http://www.w3.org/2000/svg" xmlns:xlink="http://www.w3.org/1999/xlink" x="0px" y="0px" viewBox="0 0 479.968 479.968" style="enable-background:new 0 0 479.968 479.968;" xml:space="preserve">
	<g>
		<g>
			<path d="M456.304,251.971H271.816v-96c0-0.104-0.04-0.208-0.04-0.312c0-0.24-0.072-0.472-0.104-0.712
				c-0.088-0.693-0.268-1.371-0.536-2.016c-0.104-0.256-0.208-0.496-0.336-0.744c-0.423-0.815-0.987-1.548-1.664-2.168l-0.04-0.064
				l-36.496-32c-0.184-0.16-0.408-0.2-0.6-0.344v-41.64c0-4.418-3.582-8-8-8h-49.248c-0.394-0.74-0.905-1.413-1.512-1.992l-32-28
				c-3.018-2.644-7.527-2.644-10.544,0l-32,28c-0.622,0.583-1.143,1.264-1.544,2.016H47.968c-4.418,0-8,3.582-8,8v41.6
				c-0.242,0.115-0.475,0.248-0.696,0.4l-36.544,32l-0.04,0.056c-0.677,0.623-1.241,1.359-1.664,2.176
				c-0.131,0.24-0.246,0.489-0.344,0.744c-0.265,0.643-0.443,1.318-0.528,2.008c-0.047,0.238-0.082,0.478-0.104,0.72
				c0,0.104-0.048,0.208-0.048,0.312v152.6c0.013,12.883,10.445,23.329,23.328,23.36h184.64v88.336
				c0.013,13.064,10.6,23.651,23.664,23.664h224.672c13.064-0.013,23.651-10.6,23.664-23.664V275.635
				C479.955,262.572,469.368,251.985,456.304,251.971z M231.968,138.699l19.712,17.272l-19.712,17.264V138.699z M135.968,54.603
				l15.256,13.368h-30.536L135.968,54.603z M55.968,83.971h160v103.28l-80,70.088l-80-70V83.971z M39.968,138.603v34.736
				L20.12,155.971L39.968,138.603z M23.328,315.971c-4.063-0.004-7.356-3.297-7.36-7.36v-135.04l114.728,100.416
				c3.017,2.644,7.526,2.644,10.544,0l114.576-100.368v134.992c-0.004,4.06-3.292,7.351-7.352,7.36H23.328z M463.968,420.307
				c-0.004,4.231-3.433,7.66-7.664,7.664H231.632c-4.231-0.004-7.66-3.433-7.664-7.664v-88.336h24.496
				c9.149-0.022,17.442-5.385,21.216-13.72l39.624,29.72l-66.136,49.6c-3.537,2.648-4.258,7.662-1.61,11.199s7.662,4.258,11.199,1.61
				c0.004-0.003,0.007-0.006,0.011-0.008l69.864-52.4l16.536,12.4c2.844,2.133,6.756,2.133,9.6,0l16.592-12.416l69.808,52.264
				c3.532,2.654,8.547,1.942,11.201-1.59s1.942-8.547-1.59-11.201c-0.004-0.003-0.007-0.006-0.011-0.008l-66.064-49.448
				l66.064-49.432c3.537-2.648,4.258-7.662,1.61-11.199s-7.662-4.258-11.199-1.61c-0.004,0.003-0.007,0.006-0.011,0.008l-91.2,68.232
				l-72.152-54.112v-31.888h184.488c4.231,0.004,7.66,3.433,7.664,7.664V420.307z"/>
		</g>
	</g>
	<g>
		<g>
			<path d="M175.968,147.971h-80c-4.418,0-8,3.582-8,8s3.582,8,8,8h80c4.418,0,8-3.582,8-8S180.386,147.971,175.968,147.971z"/>
		</g>
	</g>
	<g>
		<g>
			<path d="M175.968,179.971h-80c-4.418,0-8,3.582-8,8s3.582,8,8,8h80c4.418,0,8-3.582,8-8S180.386,179.971,175.968,179.971z"/>
		</g>
	</g>
	<g>
		<g>
			<circle cx="135.968" cy="115.971" r="16"/>
		</g>
	</g>

</svg>
