<?xml version="1.0" encoding="iso-8859-1"?>
<!-- Generator: Adobe Illustrator 19.0.0, SVG Export Plug-In . SVG Version: 6.00 Build 0)  -->
<svg version="1.1" id="Capa_1" xmlns="http://www.w3.org/2000/svg" xmlns:xlink="http://www.w3.org/1999/xlink" x="0px" y="0px" viewBox="0 0 512 512" style="enable-background:new 0 0 512 512;" xml:space="preserve">
	<g>
		<g>
			<path d="M481.314,112.883H290.72l92.068-92.069c5.608-5.607,14.735-5.606,20.344-0.001L435.31,52.99
				c5.607,5.608,5.608,14.734,0.001,20.341L415.63,93.012c-3.185,3.184-3.185,8.344-0.001,11.528s8.345,3.184,11.529,0l19.683-19.681
				c11.964-11.964,11.964-31.432-0.001-43.398L414.658,9.284c-11.967-11.962-31.434-11.962-43.399,0.002L267.662,112.883h-23.324
				L140.74,9.286c-11.964-11.962-31.432-11.965-43.398,0L65.161,41.464c-11.964,11.966-11.964,31.433,0,43.398l19.613,19.612
				c3.185,3.184,8.345,3.184,11.529,0s3.184-8.345,0-11.528L76.691,73.333c-5.608-5.607-5.607-14.733-0.001-20.341l32.18-32.178
				c5.608-5.607,14.736-5.607,20.342,0l92.069,92.069H30.686C13.766,112.883,0,126.65,0,143.569v45.507
				c0,16.921,13.766,30.687,30.686,30.687h27.605c-1.378,4.589-2.09,9.382-2.09,14.248c0,27.275,22.19,49.465,49.466,49.465
				c27.276,0,49.466-22.19,49.466-49.465c0-4.875-0.711-9.665-2.087-14.248h49.515v29.552c-23.409,3.9-41.314,24.284-41.314,48.781
				c0,24.499,17.906,44.883,41.314,48.782v32.331c0,9.161,3.568,16.135,9.79,19.135c6.224,3.002,13.903,1.448,21.072-4.258
				l10.027-7.984c6.687-5.324,18.418-5.324,25.105,0l10.03,7.984c3.537,2.816,7.2,4.615,10.75,5.361
				c8.878,14.695,25.012,23.954,42.378,23.954c27.276,0,49.466-22.19,49.466-49.466c0-27.275-22.19-49.465-49.466-49.465
				c-7.795,0-15.423,1.862-22.27,5.313V219.763h14.801c3.9,23.409,24.284,41.314,48.782,41.314c24.499,0,44.883-17.906,48.782-41.314
				h42.253v29.552c-23.41,3.9-41.315,24.284-41.315,48.781c0,24.499,17.906,44.883,41.315,48.782v134.122
				c0,7.931-6.452,14.383-14.384,14.383h-1.675c-3.899-23.41-24.284-41.315-48.782-41.315s-44.884,17.906-48.782,41.315H62.326
				c-7.93,0-14.382-6.453-14.382-14.383v-80.406c23.408-3.9,41.313-24.284,41.313-48.782s-17.904-44.883-41.313-48.782v-65.502
				c0-4.502-3.649-8.152-8.152-8.152s-8.152,3.65-8.152,8.152v243.472c0,16.921,13.766,30.687,30.685,30.687h387.349
				c16.921,0,30.688-13.767,30.688-30.687V219.763h0.951c16.921,0,30.686-13.766,30.686-30.687v-45.507
				C512,126.65,498.234,112.883,481.314,112.883z M105.666,267.174c-18.285,0-33.162-14.876-33.162-33.161
				c0-4.971,1.113-9.822,3.223-14.248h59.896c2.109,4.422,3.206,9.268,3.206,14.248C138.829,252.298,123.951,267.174,105.666,267.174
				z M202.56,203.46H30.686v0c-7.931,0-14.383-6.452-14.383-14.383v-45.507c0-7.931,6.453-14.383,14.383-14.383H202.56V203.46z
				 M202.561,330.243c-14.357-3.642-25.011-16.671-25.011-32.145c0-15.473,10.654-28.503,25.011-32.145V330.243z M293.137,379.21
				c0,2.389-0.397,3.673-0.658,4.26c-0.622-0.161-1.874-0.65-3.741-2.138l-10.03-7.984c-12.733-10.136-32.683-10.138-45.416,0.001
				l-10.026,7.983c-1.871,1.489-3.123,1.978-3.744,2.139c-0.261-0.587-0.658-1.871-0.658-4.26V129.186h22.045
				c0.018,0,0.037,0.002,0.055,0.002s0.037-0.002,0.055-0.002h29.961c0.018,0,0.037,0.002,0.055,0.002
				c0.018,0,0.037-0.002,0.055-0.002h22.044V379.21z M464.059,330.243c-14.357-3.642-25.012-16.671-25.012-32.145
				c0-15.473,10.654-28.503,25.012-32.145V330.243z M47.943,319.669c14.357,3.642,25.01,16.672,25.01,32.146
				c0,15.473-10.654,28.503-25.01,32.145V319.669z M367.069,495.385c3.641-14.359,16.673-25.011,32.148-25.011
				c15.474,0,28.507,10.653,32.148,25.011H367.069z M331.71,340.774c18.285,0,33.162,14.876,33.162,33.161
				c0,18.286-14.877,33.162-33.162,33.162c-10.514,0-20.347-5.069-26.542-13.306c2.759-3.615,4.271-8.633,4.271-14.582v-29.833
				C315.511,343.882,323.468,340.774,331.71,340.774z M373.023,244.774c-15.473,0-28.503-10.654-32.145-25.011h64.29
				C401.526,234.12,388.497,244.774,373.023,244.774z M495.696,189.078c0,7.931-6.452,14.383-14.383,14.383H309.44v-74.273h171.874
				c7.931,0,14.383,6.452,14.383,14.383V189.078z"/>
		</g>
	</g>
	<g>
		<g>
			<path d="M154.964,380.623c-27.276,0-49.466,22.19-49.466,49.466s22.19,49.466,49.466,49.466c27.276,0,49.466-22.191,49.466-49.466
				C204.43,402.813,182.24,380.623,154.964,380.623z M154.964,463.251c-18.285,0-33.162-14.878-33.162-33.162
				c0-18.286,14.878-33.162,33.162-33.162c18.285,0,33.162,14.876,33.162,33.162S173.249,463.251,154.964,463.251z"/>
		</g>
	</g>
</svg>
