<?xml version="1.0" encoding="iso-8859-1"?>
<!-- Generator: Adobe Illustrator 19.0.0, SVG Export Plug-In . SVG Version: 6.00 Build 0)  -->
<svg version="1.1" id="Capa_1" xmlns="http://www.w3.org/2000/svg" xmlns:xlink="http://www.w3.org/1999/xlink" x="0px" y="0px" width="30" height="22" viewBox="0 0 512 512" style="enable-background:new 0 0 512 512;" xml:space="preserve">
	<g>
		<g>
			<path d="M288.43,245.189l-57.442-33.037c-3.905-2.247-8.564-2.241-12.463,0.016c-3.899,2.255-6.227,6.29-6.227,10.795v66.074
				c0,4.504,2.328,8.54,6.227,10.795c1.954,1.131,4.099,1.697,6.245,1.697c2.135,0,4.27-0.56,6.218-1.681l57.441-33.036
				c3.858-2.218,6.254-6.361,6.254-10.812C294.682,251.549,292.286,247.406,288.43,245.189z M227.265,284.724v-57.449L277.209,256
				L227.265,284.724z"/>
		</g>
	</g>
	<g>
		<g>
			<path d="M453.339,0h-79.106H137.767H58.661c-6.877,0-12.472,5.595-12.472,12.472v269.137c0,4.133,3.35,7.483,7.483,7.483
				s7.483-3.35,7.483-7.483V14.966h69.128v482.067H61.155V334.822c0-4.133-3.35-7.483-7.483-7.483s-7.483,3.35-7.483,7.483v164.706
				c0,6.877,5.595,12.472,12.472,12.472h79.106h236.467h79.106c6.877,0,12.472-5.595,12.472-12.472V12.472
				C465.811,5.595,460.216,0,453.339,0z M381.717,497.034V97.358c0-4.142-3.35-7.499-7.483-7.499s-7.483,3.357-7.483,7.499v399.645
				H145.25V14.998h221.5v28.676c0,4.142,3.35,7.499,7.483,7.499s7.483-3.357,7.483-7.499V14.966h69.128v482.068H381.717z"/>
		</g>
	</g>
	<g>
		<g>
			<path d="M429.866,36.633h-27.937c-6.877,0-12.472,5.595-12.472,12.472v27.937c0,6.877,5.595,12.472,12.472,12.472h27.937
				c6.877,0,12.472-5.595,12.472-12.472V49.105C442.338,42.228,436.743,36.633,429.866,36.633z M427.372,74.548h-22.948V51.6h22.948
				V74.548z"/>
		</g>
	</g>
	<g>
		<g>
			<path d="M429.866,113.804h-27.937c-6.877,0-12.472,5.595-12.472,12.472v27.937c0,6.877,5.595,12.472,12.472,12.472h27.937
				c6.877,0,12.472-5.595,12.472-12.472v-27.937C442.338,119.399,436.743,113.804,429.866,113.804z M427.372,151.718h-22.948V128.77
				h22.948V151.718z"/>
		</g>
	</g>
	<g>
		<g>
			<path d="M429.866,190.974h-27.937c-6.877,0-12.472,5.595-12.472,12.472v27.937c0,6.878,5.595,12.472,12.472,12.472h27.937
				c6.877,0,12.472-5.595,12.472-12.472v-27.937C442.338,196.569,436.743,190.974,429.866,190.974z M427.372,228.889h-22.948v-22.948
				h22.948V228.889z"/>
		</g>
	</g>
	<g>
		<g>
			<path d="M429.866,268.144h-27.937c-6.877,0-12.472,5.595-12.472,12.472v27.937c0,6.877,5.595,12.472,12.472,12.472h27.937
				c6.877,0,12.472-5.595,12.472-12.472v-27.937C442.338,273.739,436.743,268.144,429.866,268.144z M427.372,306.059h-22.948v-22.948
				h22.948V306.059z"/>
		</g>
	</g>
	<g>
		<g>
			<path d="M429.866,345.315h-27.937c-6.877,0-12.472,5.595-12.472,12.472v27.937c0,6.877,5.595,12.472,12.472,12.472h27.937
				c6.877,0,12.472-5.595,12.472-12.472v-27.937C442.338,350.91,436.743,345.315,429.866,345.315z M427.372,383.229h-22.948v-22.948
				h22.948V383.229z"/>
		</g>
	</g>
	<g>
		<g>
			<path d="M429.866,422.486h-27.937c-6.877,0-12.472,5.595-12.472,12.472v27.937c0,6.877,5.595,12.472,12.472,12.472h27.937
				c6.877,0,12.472-5.595,12.472-12.472v-27.937C442.338,428.081,436.743,422.486,429.866,422.486z M427.372,460.4h-22.948v-22.948
				h22.948V460.4z"/>
		</g>
	</g>
	<g>
		<g>
			<path d="M110.586,36.633H82.648c-6.877,0-12.472,5.595-12.472,12.472v27.937c0,6.877,5.595,12.472,12.472,12.472h27.937
				c6.877,0,12.472-5.595,12.472-12.472V49.105C123.057,42.228,117.463,36.633,110.586,36.633z M108.091,74.548H85.143V51.6h22.948
				V74.548z"/>
		</g>
	</g>
	<g>
		<g>
			<path d="M110.586,113.804H82.648c-6.877,0-12.472,5.595-12.472,12.472v27.937c0,6.877,5.595,12.472,12.472,12.472h27.937
				c6.877,0,12.472-5.595,12.472-12.472v-27.937C123.057,119.399,117.463,113.804,110.586,113.804z M108.091,151.718H85.143V128.77
				h22.948V151.718z"/>
		</g>
	</g>
	<g>
		<g>
			<path d="M110.586,190.975H82.648c-6.877,0-12.472,5.595-12.472,12.472v27.937c0,6.877,5.595,12.472,12.472,12.472h27.937
				c6.877,0,12.472-5.595,12.472-12.472v-27.937C123.057,196.57,117.463,190.975,110.586,190.975z M108.091,228.889H85.143v-22.948
				h22.948V228.889z"/>
		</g>
	</g>
	<g>
		<g>
			<path d="M110.586,268.144H82.648c-6.877,0-12.472,5.595-12.472,12.472v27.937c0,6.877,5.595,12.472,12.472,12.472h27.937
				c6.877,0,12.472-5.595,12.472-12.472v-27.937C123.057,273.739,117.463,268.144,110.586,268.144z M108.091,306.059H85.143v-22.948
				h22.948V306.059z"/>
		</g>
	</g>
	<g>
		<g>
			<path d="M110.586,345.315H82.648c-6.877,0-12.472,5.595-12.472,12.472v27.937c0,6.877,5.595,12.472,12.472,12.472h27.937
				c6.877,0,12.472-5.595,12.472-12.472v-27.937C123.057,350.91,117.463,345.315,110.586,345.315z M108.091,383.229H85.143v-22.948
				h22.948V383.229z"/>
		</g>
	</g>
	<g>
		<g>
			<path d="M110.586,422.486H82.648c-6.877,0-12.472,5.595-12.472,12.472v27.937c0,6.877,5.595,12.472,12.472,12.472h27.937
				c6.877,0,12.472-5.595,12.472-12.472v-27.937C123.057,428.081,117.463,422.486,110.586,422.486z M108.091,460.4H85.143v-22.948
				h22.948V460.4z"/>
		</g>
	</g>

</svg>
